<svg xmlns="http://www.w3.org/2000/svg" xmlns:xlink="http://www.w3.org/1999/xlink" width="648" height="284.695" viewBox="0 0 648 284.695"><defs><style>.a{opacity:0.3;fill:url(#a);}.b{fill:#bee2ff;}.c{fill:url(#b);}.d{fill:url(#c);}.e{fill:url(#d);}.f{opacity:0.17;fill:url(#e);}.g{fill:#419de9;}.h{fill:url(#f);}.i{fill:url(#g);}.j{fill:url(#h);}.k{fill:#b4e2ff;}.l{fill:#d8ecff;}.m{fill:rgba(121,195,252,0);}.m,.n{opacity:0.6;}.n{fill:#a4c7e5;}.o{fill:#401804;}.p{fill:#ffdad5;}.q{fill:#f0f0f0;}.r{fill:#44474e;}.s{fill:#95738e;}.t{fill:#fffaf2;}</style><linearGradient id="a" x1="0.5" x2="0.5" y2="1" gradientUnits="objectBoundingBox"><stop offset="0" stop-color="#aad1ff"/><stop offset="1" stop-color="#fff" stop-opacity="0"/></linearGradient><linearGradient id="b" x1="0.5" x2="0.5" y2="1" gradientUnits="objectBoundingBox"><stop offset="0" stop-color="#a3d6ff"/><stop offset="1" stop-color="#d4e4ff"/></linearGradient><linearGradient id="c" x1="0.5" x2="0.5" y2="1" gradientUnits="objectBoundingBox"><stop offset="0" stop-color="#d7e5ff"/><stop offset="1" stop-color="#a5ddff"/></linearGradient><linearGradient id="d" x1="0.5" x2="0.5" y2="1" gradientUnits="objectBoundingBox"><stop offset="0" stop-color="#a6d1fd"/><stop offset="1" stop-color="#d4e4ff"/></linearGradient><linearGradient id="e" x1="0.142" y1="0.353" x2="0.856" y2="0.84" gradientUnits="objectBoundingBox"><stop offset="0" stop-color="#cfeaff"/><stop offset="0.297" stop-color="#bfe1ff"/><stop offset="0.569" stop-color="#5382ab"/><stop offset="1" stop-color="#336798"/></linearGradient><linearGradient id="f" x1="0.082" y1="0.5" x2="0.765" y2="0.263" gradientUnits="objectBoundingBox"><stop offset="0" stop-color="#57bbf6"/><stop offset="1" stop-color="#add4f2"/></linearGradient><linearGradient id="g" x1="0.5" x2="0.5" y2="1" gradientUnits="objectBoundingBox"><stop offset="0" stop-color="#e6f7ff"/><stop offset="1" stop-color="#479cf4"/></linearGradient><linearGradient id="h" x1="0.882" y1="0.672" x2="0.138" y2="0.5" gradientUnits="objectBoundingBox"><stop offset="0" stop-color="#52a8f5"/><stop offset="1" stop-color="#a2dffb"/></linearGradient></defs><g transform="translate(-59 -777.305)"><ellipse class="a" cx="324" cy="91.5" rx="324" ry="91.5" transform="translate(59 879)"/><g transform="translate(247.707 777.305)"><path class="b" d="M5.3,0C4.434,0,3.574.017,2.714.062,2.057.1,1.055-.039.5.368-.077.79-.038,1.656.052,2.267a13.752,13.752,0,0,0,4.071,8.387,23.565,23.565,0,0,0,13.119,6.114,10.689,10.689,0,0,0,9.49-2.743,39.283,39.283,0,0,1,4.106,11.428,27.251,27.251,0,0,1,.407,5.874c-.041,1.274-.111,2.546-.249,3.814a4.492,4.492,0,0,0-.125,1.906.876.876,0,0,0,1.5.149,4.262,4.262,0,0,0,.328-1.8c.109-.853.21-1.707.283-2.564.117-1.387.2-2.779.2-4.172a30.965,30.965,0,0,0-1.67-9.241A31.708,31.708,0,0,0,22.067,4.682c-2.847-2.443-6.1-3.433-9.8-3.964A49.367,49.367,0,0,0,5.3,0" transform="translate(0 85.891) rotate(-39)"/><path class="c" d="M38.157.293A20.886,20.886,0,0,0,33.43.015,29.371,29.371,0,0,0,11.755,10.3c-4.5,5.326-5.736,11.947-6.625,18.64-.088.665-.126,1.325-.176,1.991-.011.143-.027.27-.044.39A.86.86,0,0,0,4.585,32.4a44.494,44.494,0,0,0-1.98,5.2C.96,42.836-.714,48.182.317,53.7A77.065,77.065,0,0,1,1.67,44.573c.035-.171.072-.341.112-.511l.012-.054a19.954,19.954,0,0,1,.832-2.674l.011-.028c.045-.115.092-.229.139-.343.1-.237.2-.473.3-.708q.054-.12.1-.242c.494-1.21.7-2.573,1.144-3.824q.159-.427.332-.85l.021-.05c.313-.759.659-1.509,1.025-2.251a2.771,2.771,0,0,0,.477-.857,5.358,5.358,0,0,0,.4-.764q.323-.625.647-1.25l-.02.007q.326-.6.651-1.193L8,28.719,8.23,28.3c.724-1.3,1.492-2.567,2.29-3.821.285-.448.965-1.09,1.1-1.592,0-.019.006-.036.009-.054a28.531,28.531,0,0,1,6.112-6.449c-.289.312-.9,1.372-1.065,1.581-.5.642-1.036,1.24-1.577,1.845A39.282,39.282,0,0,0,12.337,23.2,64.33,64.33,0,0,0,8.219,29.96c-.012.014-.025.027-.036.04A16.46,16.46,0,0,0,6.7,32.84c1.8-.832,3.781-1.374,5.624-2.112a46.212,46.212,0,0,0,5.352-2.519,59.721,59.721,0,0,0,6.841-4.359,27.105,27.105,0,0,0,6.414-5.887,30.924,30.924,0,0,0,5.413-8.487,25.485,25.485,0,0,0,1.368-4.867c.012-.072.028-.151.045-.232a15.945,15.945,0,0,0,.766-1.756c.345-.95,1.16-1.994-.368-2.328" transform="translate(215.152 1.797)"/><path class="d" d="M23.82,36.39c.1,0,.205-.075.319-.224.263-.342.053-1.453-.059-2.05-.021-.111-.038-.2-.048-.266a13.025,13.025,0,0,0-.341-1.558,44.859,44.859,0,0,0-1.657-4.57c-.191-.468-.444-1.086-.706-1.715-.045-.107-.083-.187-.114-.251-.111-.231-.111-.231.113-.475l.041-.045a3.09,3.09,0,0,1,.414-.358,3.816,3.816,0,0,0,.343-.284,7.755,7.755,0,0,0,1.887-3.127,9.89,9.89,0,0,0-.536-6.774A26.378,26.378,0,0,0,16.87,4.864,21.067,21.067,0,0,0,10.437,1.1,13.653,13.653,0,0,0,6.323.138c-.2-.014-.4-.021-.606-.021A11.011,11.011,0,0,0,4.349.208C4.22.224,4.085.25,3.955.275A3.938,3.938,0,0,1,3.4.357l-.089,0c-.06,0-.109.006-.152.006-.169,0-.236-.049-.45-.26A.311.311,0,0,0,2.505,0a.185.185,0,0,0-.166.142.508.508,0,0,0,.139.531A4.277,4.277,0,0,0,.058,4.4a15.783,15.783,0,0,0,.375,4.7A22.815,22.815,0,0,0,4.409,17.98a35.464,35.464,0,0,0,6.94,7.033,10.159,10.159,0,0,0,4.664,2.132,5.448,5.448,0,0,0,.884.073,5.981,5.981,0,0,0,1.867-.312c.046-.015.107-.033.175-.052.284-.082.714-.207.82-.384.1-.159.007-.3-.1-.472-.033-.051-.067-.1-.1-.161l-.293-.534c-.348-.633-.706-1.286-1.065-1.924-.053-.094-.109-.219-.169-.35a2.273,2.273,0,0,0-.507-.824.311.311,0,0,0-.085-.008.663.663,0,0,1-.267-.044c-.057-.037-.066-.14-.071-.208,0-.037-.005-.059-.012-.063a2.9,2.9,0,0,0-1.006-.231c-.171-.02-.333-.039-.461-.067-.476-.1-.837-.192-1.172-.295-.4-.125-.812-.279-1.228-.457a3.776,3.776,0,0,1-.342-.183,2.534,2.534,0,0,0-.664-.312,11.234,11.234,0,0,1,2.609.469,10.154,10.154,0,0,1,1.373.478c.055.023.145.073.249.131a2.27,2.27,0,0,0,.715.31.118.118,0,0,0,.06-.013,27.006,27.006,0,0,0-1.83-2.6c-.339-.429-.7-.892-1.026-1.376-.021-.031-.074-.126-.141-.246a3.614,3.614,0,0,0-.57-.875c.21,0,.659.487.928.776.078.084.146.157.189.2a12.208,12.208,0,0,1,.99,1.057,24.177,24.177,0,0,1,1.471,1.994c.648.968,1.222,1.985,1.754,2.944.123.221.255.448.383.667a13.222,13.222,0,0,1,.949,1.839.11.11,0,0,1,.065-.028c.07,0,.1.114.137.224a1.181,1.181,0,0,0,.038.114c.17.408.34.814.506,1.221.355.864.634,1.566.88,2.208l.005.014c.3.778.6,1.582.849,2.388a13.35,13.35,0,0,1,.5,2.293c.041.331.068.636.08.932C23.395,35.7,23.522,36.39,23.82,36.39ZM22.393,21.9a8.392,8.392,0,0,1-1.331,2.219c.338-.5.6-.913.818-1.29.054-.092.158-.285.258-.471.126-.233.244-.454.256-.458Zm-5.931-6.467c.15,0,.3,1.348.308,1.473a6.158,6.158,0,0,1-.243,2.074,7.972,7.972,0,0,0-.063-1,8.394,8.394,0,0,1-.043-2.527A.055.055,0,0,1,16.462,15.432Z" transform="translate(18.663 12.57) rotate(-31)"/><path class="b" d="M56.8,1.5A11.124,11.124,0,0,0,50.625,0C42.443,0,34.753,3.035,28.11,7.558a52.664,52.664,0,0,0-9.772,8.92,26.124,26.124,0,0,0-4.187,6.231,21.468,21.468,0,0,0-1.521,4.8,49.33,49.33,0,0,0-.863,6.127c-.057.808-.526,5.093.817,5.166a1.854,1.854,0,0,0,0,.3C9.667,43.659,7.865,49,6.194,54.068A101.951,101.951,0,0,0,2.6,67.483,146.178,146.178,0,0,0,.425,85.672C.351,86.981.3,88.29.256,89.6Q.2,91.278.144,92.955A21.611,21.611,0,0,0,.082,96.9c.173,1.085,1.112.921,1.154-.159.05-1.3.042-2.61.1-3.914q.114-2.6.239-5.193A121.415,121.415,0,0,1,8.459,52.4a82.134,82.134,0,0,1,5.979-13.2,92.027,92.027,0,0,1,7.344-10.727,67.987,67.987,0,0,1,8.348-9.25,64.205,64.205,0,0,1,8.214-6.039A90.142,90.142,0,0,1,49.595,6.83c2.056-.925,4.151-1.753,6.222-2.641.373-.16.772-.315,1.131-.5,1.2-.617.8-1.546-.151-2.192" transform="translate(199.609 29.929)"/><path class="e" d="M-7.913,0A22.591,22.591,0,0,1,1.415,1.75,41.463,41.463,0,0,1,8.795,6.035a23.157,23.157,0,0,1,7.683,8.55c1.082,2.125,1.876,5.133,1.149,7.451-.856,2.73-3.206,5.008-6.3,4.526A11.4,11.4,0,0,1,6.2,23.806a19.375,19.375,0,0,1-4.284-5.047C.042,15.651-1.06,12.138-2.654,8.89-3.411,7.349-4.141,5.8-5.047,4.332A7.353,7.353,0,0,0-6.654,2.349c-.364-.288-1.9-.787-1.312-1.435a18.955,18.955,0,0,0-17.88,14.9c-.154.762-.274,1.531-.4,2.3-.08.484-.048,2.271-.481,2.58-.955.683-.554-1.391-.513-1.69q.159-1.158.337-2.312A19.245,19.245,0,0,1-21.285,5.629,19.578,19.578,0,0,1-7.913,0" transform="translate(231.403 73.448)"/></g><g transform="translate(181.667 794.508)"><path class="f" d="M51.656,15.228s19.406-3.959,42.286-7.1S162.561,0,162.561,0l37.548,53.731L0,29.8s18.084-5.473,27.583-8.152S51.656,15.228,51.656,15.228Z" transform="translate(0 89.852)"/><path class="g" d="M0,17.647,80.245,0V26.471Z" transform="translate(107.827)"/><path class="h" d="M0,0V36.9L98.7,10.428Z" transform="translate(187.27)"/><path class="i" d="M0,0V105.081l93.886,20.856V9.626Z" transform="translate(107.827 17.647)"/><path class="j" d="M0,16.845V133.156l83.455-24.866L84.257,0Z" transform="translate(200.911 10.428)"/><path class="k" d="M21.666,0,0,37.7,93.886,55.348,114.75,9.626Z" transform="translate(86.161 17.647)"/><path class="l" d="M0,16.845,29.691,64.171,111.54,38.5,84.257,0Z" transform="translate(200.911 10.428)"/><g transform="translate(201.217 100.237)"><path class="m" d="M12.623,0,0,4.569v45.69s17.1-1.005,17.131-2.741C17.535,26.677,12.623,0,12.623,0Z"/><path class="n" d="M10.089.1A10.852,10.852,0,0,1,21.811,7.41c.2.64-5.261,2.952-10.82,3.655s-10.639.366-10.82,0C-1.057,8.557,4.531.8,10.089.1Z" transform="translate(10.648 38.279)"/><path class="o" d="M3.019,12.152S.713,10.573.314,8.5s-.889-5.5,1.8-7.31a6.074,6.074,0,0,1,7.213,0,5.882,5.882,0,0,1,1.8,4.569c-.221.328-5.41,0-5.41,0l-.9.914s.328,4.066,0,4.569A4.435,4.435,0,0,1,3.019,12.152Z" transform="translate(7.8 0.641)"/><path class="p" d="M2.717.914S-.21,4.013.012,5.483s-.27,4.273.9,3.655S8.055,6.56,8.127,5.483s.726-3.764.9-3.655,2.525,5.214,2.7,5.483,1.486.721,0,1.828S4.631,14.1,4.52,14.621s-.353,1.526,0,1.828,1.2,1.723,1.8.914A13.848,13.848,0,0,1,9.93,13.707a12.472,12.472,0,0,0,3.607-3.655,19.472,19.472,0,0,0-.9-2.741,29.834,29.834,0,0,0-2.7-5.483A5.928,5.928,0,0,0,6.323,0,7.834,7.834,0,0,0,2.717.914Z" transform="translate(9.906 13.707)"/><path class="p" d="M8.317.234s-5.8-.928-7.213.914A7.089,7.089,0,0,0,.2,6.63,5.972,5.972,0,0,0,3.809,9.372c2.271.608,4.169.091,4.508-1.828s-1.022-2.025-.9-3.655A15.581,15.581,0,0,1,8.317.234Z" transform="translate(10.617 6.163)"/><path class="q" d="M1.8,2.747S2.45.177,3.607.006,8.583,3.429,9.918,1.834a8.261,8.261,0,0,1,1.8-1.828s2.507,2.823,2.7,3.655-.168,1.073-.9,1.828S6.588,12.12,6.311,12.8s.108,2.213.9,1.828,1.092-1.043,1.8-.914,1.855.281,1.8.914a13.194,13.194,0,0,1-2.7,5.483c-1.471,1.4-4.328,6.122-5.41,6.4s-2.562.5-2.7,0A57.062,57.062,0,0,1,.9,19.2a50.073,50.073,0,0,0,0-8.224C.775,9.769,1.8,2.747,1.8,2.747Z" transform="translate(7.213 17.356)"/><path class="r" d="M9.016,4.625c1.22-1.691,4.592-5.1,5.41-4.569s9.445,13.928,9.918,14.621a10.658,10.658,0,0,1,.9,1.828l-2.7.914a13.883,13.883,0,0,0-1.8-.914c.307.263,0,2.741,0,2.741l-1.8.914s-3.038-5.757-3.607-6.4-.417,1.989-1.8,3.655-3.487,5.316-5.41,5.483-4.495.015-5.41-.914A35.773,35.773,0,0,1,0,18.332S3.607,16.945,3.607,16.5s3.273-3.936,4.508-6.4,2.4-2.559,1.8-3.655S7.8,6.317,9.016,4.625Z" transform="translate(8.115 25.53)"/><path class="s" d="M0,5.867S1.031,9.116,1.8,8.608a24.8,24.8,0,0,0,2.7-1.828c.765-.676,1.528-.288,2.7-.914S8.494,4.4,9.918,3.125,12.765.907,12.623.384s-3.877-.5-4.508,0-1.106,2.637-1.8,2.741-3.607,0-3.607,0,.009,1.666,0,1.828A18.1,18.1,0,0,1,0,5.867" transform="translate(27.049 39.823)"/><path class="t" d="M1.719,4.557a2.106,2.106,0,0,1-.5-.064A1.343,1.343,0,0,1,0,3.316c.052-.349.433-.575.972-.575a2.107,2.107,0,0,1,.5.064A1.359,1.359,0,0,1,2.7,3.982C2.641,4.331,2.257,4.557,1.719,4.557ZM5.328,1.815a2.091,2.091,0,0,1-.506-.065A1.339,1.339,0,0,1,3.607.573C3.658.225,4.04,0,4.579,0a2.109,2.109,0,0,1,.5.064A1.358,1.358,0,0,1,6.3,1.241C6.246,1.59,5.864,1.815,5.328,1.815Z" transform="translate(27.058 41.127)"/></g></g></g></svg>