<svg xmlns="http://www.w3.org/2000/svg" width="48.244" height="48.243" viewBox="0 0 48.244 48.243"><defs><style>.a{fill:#a8a8a8;}</style></defs><path class="a" d="M88.213,112.072A24.121,24.121,0,1,1,112.335,87.95,24.15,24.15,0,0,1,88.213,112.072Zm0-45.756A21.634,21.634,0,1,0,109.848,87.95,21.659,21.659,0,0,0,88.213,66.316Zm.831,33.929a1.242,1.242,0,0,1-1.068-.6L81.345,88.592a1.249,1.249,0,0,1,0-1.279l6.631-11.049a1.243,1.243,0,1,1,2.131,1.279L83.862,87.95l6.245,10.413a1.244,1.244,0,0,1-1.063,1.883Z" transform="translate(-64.091 -63.829)"/></svg>