<svg xmlns="http://www.w3.org/2000/svg" width="46.872" height="46.637" viewBox="0 0 46.872 46.637"><defs><style>.a{fill:#9b9b9b;}</style></defs><path class="a" d="M119.594,106.5H106.875a4.222,4.222,0,0,0-4.24,4.24v12.719a4.081,4.081,0,0,0,4.24,4.24h12.719a4.222,4.222,0,0,0,4.24-4.24V110.736A4.222,4.222,0,0,0,119.594,106.5Zm1.884,16.959a2.111,2.111,0,0,1-2.12,2.12H106.875a2.111,2.111,0,0,1-2.12-2.12V110.736h-.236a2.111,2.111,0,0,1,2.12-2.12h12.719a2.111,2.111,0,0,1,2.12,2.12Zm23.554,8.479H132.314a4.222,4.222,0,0,0-4.24,4.24v12.719a4.222,4.222,0,0,0,4.24,4.24h12.719a4.222,4.222,0,0,0,4.24-4.24V136.174A4.222,4.222,0,0,0,145.033,131.934Zm2.12,16.959a2.111,2.111,0,0,1-2.12,2.12H132.314a2.111,2.111,0,0,1-2.12-2.12V136.174a2.111,2.111,0,0,1,2.12-2.12h12.719a2.111,2.111,0,0,1,2.12,2.12Zm-2.12-42.4H132.314a4.222,4.222,0,0,0-4.24,4.24v12.719a4.222,4.222,0,0,0,4.24,4.24h12.719a4.222,4.222,0,0,0,4.24-4.24V110.736A4.222,4.222,0,0,0,145.033,106.5Zm2.12,16.959a2.111,2.111,0,0,1-2.12,2.12H132.314a2.111,2.111,0,0,1-2.12-2.12V110.736a2.111,2.111,0,0,1,2.12-2.12h12.719a2.111,2.111,0,0,1,2.12,2.12Zm-27.794,8.479H106.875a4.222,4.222,0,0,0-4.24,4.24v12.719H102.4a4.222,4.222,0,0,0,4.24,4.24h12.719a4.222,4.222,0,0,0,4.24-4.24V136.174A4.222,4.222,0,0,0,119.359,131.934Zm2.12,16.959a2.111,2.111,0,0,1-2.12,2.12H106.875a2.111,2.111,0,0,1-2.12-2.12V136.174h-.236a2.111,2.111,0,0,1,2.12-2.12h12.719a2.111,2.111,0,0,1,2.12,2.12Z" transform="translate(-102.4 -106.496)"/></svg>